# xmcd
#
# Track frame offsets:
#	182
#	26050
#	51667
#	67197
#	87185
#	105935
#
# Disc length: 1726 seconds
#
# Revision: 1
# Processed by: cddbd v1.4PL0 Copyright (c) Steve Scherf et al.
# Submitted via: audiograbber 1.81.03
#
DISCID=4e06bc06
DTITLE=Brown, James - His Greatest Performance! Live! [CD 2)
DYEAR=1990
DGENRE=Soul
TTITLE0=The Right Time
TTITLE1=For Your Precious Love
TTITLE2=Tennesee Waltz
TTITLE3=You Can't Keep A Good Man Down
TTITLE4=Bring It On
TTITLE5=Today
EXTD=
EXTT0=
EXTT1=
EXTT2=
EXTT3=
EXTT4=
EXTT5=
PLAYORDER=
